<?xml version="1.0" encoding="UTF-8"?>
<svg xmlns="http://www.w3.org/2000/svg" width="400" height="400" viewBox="0 0 400 400" role="img" aria-label="Logo Flor de Abril">
  <defs>
    <linearGradient id="g1" x1="0" x2="1" y1="0" y2="1">
      <stop offset="0" stop-color="#DC2626" />
      <stop offset="1" stop-color="#2563EB" />
    </linearGradient>
  </defs>
  <rect width="100%" height="100%" fill="#fff7f6"/>
  <g transform="translate(50,30)">
    <circle cx="150" cy="110" r="100" fill="none" stroke="url(#g1)" stroke-width="10" />
    <!-- Mujer (simplified) -->
    <g transform="translate(85,65) scale(0.9)">
      <ellipse cx="40" cy="20" rx="18" ry="18" fill="#2563EB"/>
      <path d="M10 60 C20 30, 80 30, 90 60 L60 90 L40 90 Z" fill="#2563EB" />
    </g>
    <!-- Hombre (simplified) -->
    <g transform="translate(165,65) scale(0.9)">
      <ellipse cx="40" cy="20" rx="18" ry="18" fill="#DC2626"/>
      <path d="M30 45 L20 80 L40 80 L50 52 L70 80 L90 80 L80 45 Z" fill="#DC2626" />
    </g>
    <!-- Small flower -->
    <g transform="translate(142,30)">
      <circle cx="8" cy="8" r="4" fill="#DC2626"/>
    </g>
    <!-- Text -->
    <text x="150" y="250" font-family="Segoe UI, Roboto, Arial" font-size="28" font-weight="700" fill="#DC2626" text-anchor="middle">FLOR DE ABRIL</text>
  </g>
</svg>